<svg width="212" height="52" viewBox="0 0 212 52" fill="none" xmlns="http://www.w3.org/2000/svg">
<path d="M64 27.5C64.0007 30.7176 63.3415 33.9037 62.0603 36.8765C60.779 39.8493 58.9007 42.5504 56.5327 44.8256C54.1647 47.1007 51.3533 48.9053 48.2592 50.1364C45.1651 51.3674 41.8489 52.0006 38.5 52C24.4169 52 13 41.0308 13 27.5C12.9976 24.8681 13.4367 22.2529 14.3005 19.7553C15.9964 14.8773 19.2454 10.6351 23.588 7.62829C27.9307 4.62153 33.1472 3.00245 38.5 3C43.1164 2.99846 47.6466 4.20141 51.6071 6.48044C55.5675 8.75947 58.8094 12.029 60.9868 15.9401C61.5266 16.905 61.9976 17.9041 62.3963 18.9304C62.4516 19.0734 62.5054 19.2163 62.5578 19.3605V19.3619C62.7916 19.9962 62.9975 20.6422 63.1755 21.3001C63.7247 23.3245 64.0018 25.408 64 27.5V27.5Z" fill="#3F3D56"/>
<path d="M36 11.0213C34.9704 10.4068 33.8273 10.0599 32.6578 10.0071C31.4883 9.95428 30.3234 10.1969 29.2518 10.7166C28.3082 11.1698 27.3148 11.9827 27 13.4509C28.273 12.6217 29.9209 13.9318 30.2485 16.0335L30.172 16.0567C29.999 17.5125 30.3852 19.0973 31.133 20C31.2312 19.0624 31.7897 18.4243 32.3391 18.0257C32.8885 17.6271 33.4963 17.3375 33.9157 16.6523C34.4128 15.8401 34.539 14.6529 34.7365 13.57C34.934 12.487 35.3087 11.323 36 11.0213Z" fill="white"/>
<path d="M29.3675 23.0689C28.9492 23.614 28.3904 23.956 27.8891 24.3819C27.3892 24.809 26.9135 25.3856 26.8138 26.1259C26.7504 26.6002 26.8486 27.0824 26.835 27.562C26.8214 28.0416 26.6372 28.5814 26.2611 28.7007C25.6676 28.8867 25.2146 27.9302 24.6045 27.8634C24.1197 27.8109 23.6833 28.4727 23.8238 29.0466C23.9642 29.6205 24.6241 29.8747 25.0032 29.4999C25.346 29.9992 25.1044 30.9046 24.5894 31.0579C24.535 31.3724 24.4807 31.6855 24.4278 32C23.1261 31.2099 21.8107 30.4067 20.7038 29.2497C19.4727 27.9738 18.7091 26.4078 18.5111 24.7527C18.3676 23.4227 18.5805 21.9015 17.8768 20.8781C17.3135 20.0592 16.347 19.8783 15.4772 19.9295C15.3186 19.9386 15.1586 19.9543 15 19.9714C15.513 18.6346 16.1645 17.3408 16.9466 16.106C17.1235 16.0401 17.288 15.9513 17.4343 15.8426C18.2438 15.2464 18.6032 14.0396 19.2601 13.2049C19.3024 13.1512 19.3462 13.0988 19.3915 13.0477C20.0635 12.2864 20.9636 11.8946 21.8334 11.5304C23.7588 10.7193 25.7401 9.89773 27.7728 10.0104L27.1944 10.0589C26.5194 11.6994 25.8438 13.3399 25.1678 14.9804C25.0651 15.232 24.9614 15.484 24.8567 15.7365C24.4731 16.6694 24.0775 17.6626 24.1364 18.7069C24.1711 19.3254 24.4187 19.9858 24.8899 20.1981C25.3294 20.3946 25.8096 20.1535 26.2339 19.915C26.4137 19.8154 26.5919 19.7159 26.7716 19.615C27.4164 19.2546 28.1307 18.8851 28.8118 19.1262C29.4354 19.3464 29.896 20.0814 29.9836 20.8742C30.0639 21.6448 29.8472 22.4167 29.3675 23.0689V23.0689Z" fill="white"/>
<path d="M32.1769 35.3569C30.2793 34.2638 28.3817 33.1707 26.4841 32.0776L26.5163 32C25.3365 32.4204 24.8466 34.3826 25.0416 35.9872C25.2366 37.5918 25.8978 39.0262 26.2318 40.5897C26.6821 42.7293 26.5121 44.9426 25.7395 47C28.2347 44.3806 30.443 41.5337 32.3311 38.502C32.5949 38.1199 32.7959 37.703 32.9274 37.2651C33.0479 36.7992 33.0294 36.2391 32.788 35.8655C32.6327 35.6511 32.4226 35.4763 32.1769 35.3569V35.3569Z" fill="white"/>
<path d="M25.1558 17.9557C24.9984 18.247 24.9378 18.6356 25.0807 18.9371C25.2266 19.245 25.5352 19.3842 25.8192 19.5001L26.6387 19.8343C26.9113 19.9455 27.2051 20.0579 27.483 19.9664C27.8182 19.856 28.0506 19.4235 27.9905 19.022C27.9265 18.5948 27.5993 18.3009 27.2967 18.0507C26.8731 17.7004 26.4496 17.3502 26.0261 17L25.7874 17.2406C25.5293 17.4478 25.3157 17.6896 25.1558 17.9557V17.9557Z" fill="white"/>
<path d="M60.0836 21.4706C60.5575 21.5693 61.0314 21.668 61.5052 21.7667C61.4227 23.1828 60.6293 24.4933 59.5654 24.968C59.1221 25.1655 58.6284 25.2385 58.2615 25.6078C57.9298 25.9432 57.7616 26.4652 57.6072 26.9643C57.3367 27.8353 57.0661 28.7062 56.7955 29.5772C56.5051 30.5158 56.1321 31.5586 55.377 31.8967C54.7288 32.1875 53.9874 31.8318 53.4891 31.2354C52.9908 30.6389 52.6866 29.8369 52.3915 29.0552C52.4099 29.9072 51.962 30.7431 51.3276 31.0393C50.6917 31.3354 49.9182 31.0676 49.4933 30.4063C49.1875 29.9316 49.0607 29.3054 48.761 28.8239C48.4614 28.3424 47.8332 28.0665 47.506 28.5183C47.2905 28.8185 47.318 29.2783 47.211 29.6597C47.0444 30.2521 46.5399 30.624 46.0401 30.6565C45.5417 30.689 45.0556 30.4347 44.6383 30.0898C43.7777 29.3757 43.1433 28.2424 42.8972 26.9832C42.7887 26.4219 42.7581 25.8106 42.9461 25.2845C43.1341 24.7584 43.5881 24.3527 44.0391 24.4527C44.3356 23.8982 43.7502 23.1625 43.2228 23.2274C42.6939 23.2923 42.2796 23.7941 41.8455 24.1795C41.4129 24.565 40.8076 24.8449 40.3719 24.4622C40.375 24.8179 40.0478 25.0532 39.765 25.0235C39.4837 24.9951 39.2331 24.7949 38.9747 24.6529C37.9765 24.1024 36.7093 24.4676 36 25.509C36.4433 23.8401 37.093 21.925 38.455 21.5328C39.0114 21.3718 39.6183 21.5044 40.1441 21.2257C41.0751 20.7321 41.2631 18.867 40.459 18.0975C40.5614 18.8251 40.5416 19.6745 40.1074 20.1722C39.6733 20.6699 38.7622 20.3453 38.8173 19.6095C38.6919 20.1167 38.0682 20.1938 37.7809 19.8043C37.4919 19.4148 37.5164 18.7778 37.7212 18.3125C37.9261 17.8473 38.2746 17.5132 38.6124 17.1927C39.3385 16.5043 40.0753 15.8078 40.9161 15.375C41.7584 14.9422 42.7306 14.7961 43.5744 15.2262C44.0192 15.4534 44.4105 15.8321 44.8645 16.0323C45.3186 16.2338 45.8948 16.2081 46.196 15.7374C46.5338 15.2127 46.3748 14.4336 46.5002 13.7777C46.7249 12.6186 48.0349 12.0763 48.761 12.8418C48.2184 12.7187 47.6574 13.2868 47.5901 13.9752C47.5213 14.6636 47.9142 15.3587 48.44 15.567C49.3236 15.9133 50.1888 15.0423 50.8568 14.2362C51.5538 13.3923 52.2519 12.5488 52.951 11.7057C53.0627 11.5622 53.1879 11.4274 53.3255 11.3027C53.5445 11.1139 53.8364 11.0057 54.1421 11.0002C54.4478 10.9947 54.7444 11.0922 54.9719 11.2729C55.6781 11.7828 56.0098 12.8283 56.5892 13.5478C57.4299 14.5932 58.688 14.8475 59.8589 15.0504C60.7318 15.2005 61.6051 15.3515 62.479 15.5035C63.0615 16.4623 63.5697 17.455 64 18.4748C62.5203 19.0307 61.1552 20.0708 60.0836 21.4706Z" fill="white"/>
<path d="M62 38.4217C61.3767 39.6446 60.6518 40.8165 59.8324 41.9261C59.3086 41.7096 58.7456 42.0962 58.2554 42.4589C57.7433 42.8384 57.1279 43.2081 56.6027 42.8623C56.0659 42.5081 55.8928 41.5171 56.063 40.7313C56.2332 39.9469 56.658 39.3227 57.0697 38.7295C57.5061 38.0998 57.9731 37.4461 58.5798 37.2015C59.1879 36.9569 59.9691 37.3027 60.1466 38.1377L60.5772 38.1237C60.3357 37.8032 60.4623 37.1397 60.7867 37.023C61.1606 36.8866 61.485 37.3828 61.7061 37.8214C61.8051 38.0196 61.9054 38.2193 62 38.4217Z" fill="white"/>
<path d="M45.8774 32.9549C45.0403 33.012 44.3772 31.8946 43.9366 30.7953C43.4959 29.6961 43.0939 28.439 42.3386 27.8794C41.907 27.5597 41.4149 27.5159 40.9468 27.3609C40.4787 27.206 39.9887 26.8854 39.7649 26.2326L39.2339 26C38.5326 26.4276 37.822 26.8629 37.2177 27.5587C36.54 28.3394 36.1178 29.34 36.0164 30.4065C35.915 31.559 36.2895 32.8441 36.9894 33.277C37.5425 33.6191 38.1864 33.4035 38.7466 33.7167C39.4465 34.1079 39.862 35.2446 40.0193 36.3668C40.1766 37.4891 40.1367 38.6554 40.2492 39.7904C40.3618 40.9254 40.6719 42.1064 41.3138 42.688C42.117 43.4159 43.2956 42.8111 43.656 41.4861C43.8328 40.8362 43.8267 40.1029 43.9589 39.4282C44.1917 38.2401 44.82 37.3587 45.3183 36.3841C45.8166 35.4096 46.2088 34.0859 45.8774 32.9549Z" fill="white"/>
<path d="M36.1814 22.5664C36.2936 22.6678 36.3983 22.7768 36.4947 22.8928C36.5945 23.0616 36.6455 23.2539 36.6421 23.449C36.6387 23.6441 36.5811 23.8346 36.4755 24C36.6204 23.9919 36.7621 23.9544 36.8915 23.8899C37.0209 23.8253 37.1352 23.7352 37.2273 23.6251C37.4469 23.3797 37.6401 23.1127 37.8038 22.8283C37.9265 22.632 38.057 22.3665 37.9737 22.1333C37.9169 21.9742 37.7825 21.9063 37.6882 21.7866C37.5389 21.5969 37.5019 21.2955 37.4246 21.0351C37.2576 20.4727 36.8577 20.0591 36.4236 20L36.4839 20.0113C36.3025 20.0723 36.1759 20.3549 36.216 20.6091C36.2525 20.8407 36.4041 21.0329 36.389 21.269C36.3674 21.6086 36.0215 21.768 36.0001 22.1076C35.9968 22.278 36.0619 22.4428 36.1814 22.5664V22.5664Z" fill="white"/>
<path d="M60.7853 27.6961C60.8342 27.3536 60.8832 27.0111 60.9321 26.6687C61.0115 26.2925 61.0214 25.9034 60.9612 25.5232C60.9475 25.4401 60.9184 25.3608 60.8757 25.2899C60.8329 25.2191 60.7773 25.158 60.7121 25.1104C60.6469 25.0628 60.5735 25.0296 60.4961 25.0128C60.4187 24.9959 60.3389 24.9957 60.2615 25.0123L60.1754 25.1556C60.1589 25.8158 60.1249 26.5351 59.7375 27.1887C59.5847 27.4464 59.3859 27.6764 59.2287 27.9318C59.0716 28.1872 58.9553 28.4941 59.0167 28.7203C59.1059 29.0488 59.5141 29.0495 59.8652 28.9183C60.1641 28.8201 60.4234 28.6172 60.6012 28.3425C60.7034 28.1428 60.7661 27.9228 60.7853 27.6961V27.6961Z" fill="#E6E6E6"/>
<path d="M57.378 35.7272C57.4607 35.449 57.3413 35.1298 57.3161 34.8222C57.304 34.4249 57.394 34.0325 57.5743 33.6958C57.7534 33.3781 57.8891 33.0296 57.9766 32.6629C58.0134 32.4959 58.0067 32.3197 57.9573 32.1571C57.9013 32.0099 57.7658 31.9427 57.688 32.0593L57.8544 32.1848C57.6297 32.1379 57.3989 32.151 57.1792 32.2231C57.0538 32.2793 56.9418 32.3701 56.8527 32.4877C56.7637 32.6053 56.7001 32.7463 56.6674 32.8988C56.6399 33.1365 56.595 33.371 56.5332 33.5997C56.4339 33.8387 56.2418 33.9181 56.1211 34.1279C56.0387 34.3138 55.9972 34.5207 56.0001 34.7301C56.0031 34.9395 56.0505 35.1448 56.1381 35.3274C56.2897 35.6261 56.5307 35.8481 56.8143 35.9502C57.0175 36.0356 57.2851 36.0401 57.378 35.7272Z" fill="white"/>
<path d="M60.2058 35.7926C60.26 36.002 60.3327 36.1998 60.4219 36.3809C60.589 36.6303 60.816 36.477 61.0186 36.4164C61.2025 36.3733 61.3908 36.4048 61.5636 36.5076C61.7364 36.6103 61.8872 36.7805 62 37C61.9214 36.4189 61.7499 35.8743 61.4999 35.4119C61.2499 34.9495 60.9287 34.5828 60.5633 34.3426C60.0856 34.0538 59.5826 34.0259 59.0858 34L59 34.0326C59.2186 34.9762 59.9052 34.9551 60.2058 35.7926Z" fill="white"/>
<path d="M44.8482 37.8971C44.6629 38.0811 44.5035 38.2726 44.3714 38.4699C44.1966 38.7894 44.0808 39.1177 44.0258 39.4499C43.9827 39.6387 43.9693 39.88 44.1857 39.972C44.2479 39.9946 44.3229 40.004 44.3968 39.9985C44.4707 39.993 44.5384 39.973 44.5873 39.9422C44.7075 39.8726 44.8059 39.7927 44.8784 39.7056C45.3037 39.305 45.634 38.8765 45.8611 38.4302C46.0682 37.9602 46.0663 37.4069 45.7002 37C45.4162 37.299 45.1322 37.5981 44.8482 37.8971Z" fill="white"/>
<path d="M41.2792 13.7813C41.3625 13.886 41.4678 13.9571 41.5821 13.9858C41.6964 14.0145 41.8148 13.9995 41.9226 13.9428C42.1458 13.8173 42.3506 13.6433 42.5279 13.4286C42.6748 13.2888 42.7994 13.114 42.8949 12.9138C42.9475 12.7941 42.9812 12.6622 42.9941 12.5257C43.007 12.3892 42.9988 12.2508 42.9699 12.1184C42.887 11.8066 42.6767 11.7021 42.4911 11.6313C42.194 11.518 41.8969 11.4047 41.5999 11.2914L41.8148 11.0423C41.5937 10.8897 41.349 11.1729 41.2108 11.5236C41.1222 11.7525 41.0604 11.9971 41.0275 12.2493C40.9535 12.7997 41.0259 13.4551 41.2792 13.7813Z" fill="#E6E6E6"/>
<path d="M45.7369 2.0404C43.9067 1.84994 42.0693 2.33801 40.6291 3.39723C39.1889 4.45645 38.2639 6.00006 38.0574 7.68848C37.6275 11.2044 39.6354 18.8394 43.2963 22C45.02 15.9446 51.0603 12.3529 51.8596 9.12471C52.7136 5.67528 49.5483 2.437 45.7369 2.0404Z" fill="#5DEAA8"/>
<path d="M43.5 9C44.8807 9 46 8.10457 46 7C46 5.89543 44.8807 5 43.5 5C42.1193 5 41 5.89543 41 7C41 8.10457 42.1193 9 43.5 9Z" fill="white"/>
<path d="M42 25C43.1046 25 44 24.3284 44 23.5C44 22.6716 43.1046 22 42 22C40.8954 22 40 22.6716 40 23.5C40 24.3284 40.8954 25 42 25Z" fill="#5DEAA8"/>
<path opacity="0.2" d="M45.3598 7.12058C45.5084 7.18903 45.638 7.27925 45.7411 7.38608C45.8442 7.49291 45.9189 7.61427 45.9608 7.74321C46.0027 7.87216 46.0111 8.00618 45.9855 8.13762C45.9599 8.26905 45.9007 8.39533 45.8114 8.50924C45.7221 8.62316 45.6045 8.72247 45.4651 8.80152C45.3258 8.88056 45.1675 8.9378 44.9992 8.96994C44.6595 9.03487 44.3001 8.99368 44 8.85544C44.306 8.90762 44.6262 8.87462 44.9033 8.76234C45.1805 8.65007 45.3964 8.46585 45.5126 8.24266C45.6287 8.01947 45.6375 7.77187 45.5372 7.54419C45.437 7.31651 45.2344 7.1236 44.9655 7C45.1046 7.02362 45.2378 7.06435 45.3598 7.12058V7.12058Z" fill="#231F20"/>
<path opacity="0.2" d="M51.8401 8.99575C50.93 12.2563 44.0521 15.884 42.0893 22C41.6973 21.6969 41.3332 21.3705 41 21.0234C43.2056 15.2745 49.6554 11.7813 50.5347 8.63105C51.3217 5.81152 49.111 3.13194 45.939 2C49.7788 2.78982 52.7312 5.80301 51.8401 8.99575Z" fill="#231F20"/>
<path d="M25.079 9.03232C23.6409 8.87995 22.1973 9.27041 21.0658 10.1178C19.9342 10.9652 19.2073 12.2 19.0451 13.5508C18.7073 16.3635 20.285 22.4715 23.1614 25C24.5158 20.1557 29.2617 17.2823 29.8897 14.6998C30.5607 11.9402 28.0737 9.3496 25.079 9.03232Z" fill="#5DEAA8"/>
<path d="M23.5 17C24.3284 17 25 16.1046 25 15C25 13.8954 24.3284 13 23.5 13C22.6716 13 22 13.8954 22 15C22 16.1046 22.6716 17 23.5 17Z" fill="white"/>
<path d="M21.5 26C21.7761 26 22 25.7761 22 25.5C22 25.2239 21.7761 25 21.5 25C21.2239 25 21 25.2239 21 25.5C21 25.7761 21.2239 26 21.5 26Z" fill="#5DEAA8"/>
<path opacity="0.2" d="M26.0398 13.2412C26.2626 13.3781 26.457 13.5585 26.6116 13.7722C26.7663 13.9858 26.8783 14.2285 26.9412 14.4864C27.0041 14.7443 27.0167 15.0124 26.9782 15.2752C26.9398 15.5381 26.8511 15.7907 26.7171 16.0185C26.5832 16.2463 26.4067 16.4449 26.1977 16.603C25.9886 16.7611 25.7512 16.8756 25.4989 16.9399C25.2466 17.0042 24.9843 17.0171 24.7271 16.9778C24.47 16.9385 24.2229 16.8478 24 16.7109C24.459 16.8152 24.9393 16.7492 25.355 16.5247C25.7707 16.3001 26.0946 15.9317 26.2688 15.4853C26.4431 15.0389 26.4562 14.5437 26.3058 14.0884C26.1555 13.633 25.8515 13.2472 25.4483 13C25.6569 13.0472 25.8566 13.1287 26.0398 13.2412Z" fill="#231F20"/>
<path opacity="0.2" d="M29.8837 14.5966C29.2218 17.205 24.2197 20.1072 22.7923 25C22.5071 24.7575 22.2423 24.4964 22 24.2188C23.6041 19.6196 28.2948 16.825 28.9343 14.3048C29.5067 12.0492 27.8989 9.90555 25.592 9C28.3845 9.63186 30.5318 12.0424 29.8837 14.5966Z" fill="#231F20"/>
<path d="M67.1976 9.26002C66.6752 9.08145 66.1171 8.99323 65.5551 9.00041C64.9931 9.00758 64.4383 9.11 63.9223 9.30183C63.4062 9.49366 62.9392 9.77113 62.5477 10.1184C62.1562 10.4657 61.848 10.876 61.6406 11.3258C60.7685 13.2177 60.624 17.7356 62.2469 20C64.3336 16.8786 68.5552 15.7261 69.5965 14.0454C70.7091 12.2495 69.3946 10.011 67.1976 9.26002Z" fill="#5DEAA8"/>
<path d="M43.5 24C43.7761 24 44 23.3284 44 22.5C44 21.6716 43.7761 21 43.5 21C43.2239 21 43 21.6716 43 22.5C43 23.3284 43.2239 24 43.5 24Z" fill="white"/>
<path d="M60.5 22C61.3284 22 62 21.5523 62 21C62 20.4477 61.3284 20 60.5 20C59.6716 20 59 20.4477 59 21C59 21.5523 59.6716 22 60.5 22Z" fill="#5DEAA8"/>
<path opacity="0.2" d="M45.5166 22.2052C45.8359 22.4085 46.0096 22.6806 45.9996 22.9618C45.9896 23.243 45.7966 23.5103 45.4631 23.7049C45.1296 23.8996 44.6828 24.0056 44.221 23.9998C43.7591 23.9939 43.32 23.8767 43 23.6738C43.3662 23.7912 43.7891 23.8254 44.1929 23.7702C44.5967 23.7151 44.9552 23.5742 45.204 23.3729C45.4529 23.1715 45.5759 22.9228 45.5511 22.6713C45.5263 22.4197 45.3554 22.1818 45.0688 22C45.2352 22.0532 45.3865 22.1225 45.5166 22.2052Z" fill="#231F20"/>
<path opacity="0.2" d="M46.7525 23.4723C46.1139 24.7503 43.5247 25.6266 42.245 28C42.1517 27.8369 42.0698 27.6666 42 27.4906C43.3185 25.2932 45.7562 24.4332 46.3733 23.1985C46.9255 22.0934 46.5027 20.768 45.6072 20C46.753 20.6872 47.3779 22.221 46.7525 23.4723Z" fill="#231F20"/>
<path d="M63.058 45C61.925 45 60.6832 44.94 59.3326 44.8201C52.3469 44.1989 43.2983 42.0391 33.8536 38.7387C24.4089 35.4383 15.6965 31.3914 9.32141 27.3438C6.21589 25.3721 3.83242 23.5056 2.23729 21.7963C0.548455 19.9867 -0.190262 18.4093 0.0415667 17.1082C0.493277 14.5734 4.49295 14.0188 7.76873 14L7.76985 14.3686C3.27134 14.3945 0.617439 15.3992 0.297006 17.1975C-0.11117 19.4879 3.21774 23.0637 9.4301 27.0081C15.7912 31.0468 24.4876 35.0859 33.9174 38.3811C43.3471 41.6762 52.379 43.8323 59.3493 44.4522C66.1565 45.0577 70.2949 44.0913 70.703 41.8008C71.0419 39.8991 68.8079 37.0976 64.4127 33.9123L64.5337 33.585C67.7273 35.8995 71.4344 39.2191 70.9585 41.8901C70.7266 43.1912 69.5453 44.0975 67.4474 44.5839C66.2515 44.861 64.7825 45 63.058 45Z" fill="#5DEAA8"/>
<path d="M107.82 9.875V44H100.789L87.0781 21.125V44H80.0469V9.875H87.0781L100.812 32.7734V9.875H107.82ZM136.836 38.5156V44H118.672V38.5156H136.836ZM120.969 9.875V44H113.938V9.875H120.969ZM134.469 23.7734V29.1172H118.672V23.7734H134.469ZM136.812 9.875V15.3828H118.672V9.875H136.812ZM149.164 38.5859L155.961 9.875H159.758L160.625 14.6562L153.383 44H149.305L149.164 38.5859ZM145.672 9.875L151.297 38.5859L150.828 44H146.281L138.711 9.875H145.672ZM166.602 38.4688L172.156 9.875H179.117L171.57 44H167.023L166.602 38.4688ZM161.891 9.875L168.734 38.7031L168.547 44H164.469L157.18 14.6328L158.117 9.875H161.891ZM200.703 35.0703C200.703 34.4609 200.609 33.9141 200.422 33.4297C200.25 32.9297 199.922 32.4766 199.438 32.0703C198.953 31.6484 198.273 31.2344 197.398 30.8281C196.523 30.4219 195.391 30 194 29.5625C192.453 29.0625 190.984 28.5 189.594 27.875C188.219 27.25 187 26.5234 185.938 25.6953C184.891 24.8516 184.062 23.875 183.453 22.7656C182.859 21.6562 182.562 20.3672 182.562 18.8984C182.562 17.4766 182.875 16.1875 183.5 15.0312C184.125 13.8594 185 12.8594 186.125 12.0312C187.25 11.1875 188.578 10.5391 190.109 10.0859C191.656 9.63281 193.352 9.40625 195.195 9.40625C197.711 9.40625 199.906 9.85937 201.781 10.7656C203.656 11.6719 205.109 12.9141 206.141 14.4922C207.188 16.0703 207.711 17.875 207.711 19.9062H200.727C200.727 18.9062 200.516 18.0312 200.094 17.2812C199.688 16.5156 199.062 15.9141 198.219 15.4766C197.391 15.0391 196.344 14.8203 195.078 14.8203C193.859 14.8203 192.844 15.0078 192.031 15.3828C191.219 15.7422 190.609 16.2344 190.203 16.8594C189.797 17.4688 189.594 18.1562 189.594 18.9219C189.594 19.5 189.734 20.0234 190.016 20.4922C190.312 20.9609 190.75 21.3984 191.328 21.8047C191.906 22.2109 192.617 22.5938 193.461 22.9531C194.305 23.3125 195.281 23.6641 196.391 24.0078C198.25 24.5703 199.883 25.2031 201.289 25.9062C202.711 26.6094 203.898 27.3984 204.852 28.2734C205.805 29.1484 206.523 30.1406 207.008 31.25C207.492 32.3594 207.734 33.6172 207.734 35.0234C207.734 36.5078 207.445 37.8359 206.867 39.0078C206.289 40.1797 205.453 41.1719 204.359 41.9844C203.266 42.7969 201.961 43.4141 200.445 43.8359C198.93 44.2578 197.234 44.4688 195.359 44.4688C193.672 44.4688 192.008 44.25 190.367 43.8125C188.727 43.3594 187.234 42.6797 185.891 41.7734C184.562 40.8672 183.5 39.7109 182.703 38.3047C181.906 36.8984 181.508 35.2344 181.508 33.3125H188.562C188.562 34.375 188.727 35.2734 189.055 36.0078C189.383 36.7422 189.844 37.3359 190.438 37.7891C191.047 38.2422 191.766 38.5703 192.594 38.7734C193.438 38.9766 194.359 39.0781 195.359 39.0781C196.578 39.0781 197.578 38.9062 198.359 38.5625C199.156 38.2188 199.742 37.7422 200.117 37.1328C200.508 36.5234 200.703 35.8359 200.703 35.0703Z" fill="white"/>
</svg>
